<?xml version="1.0" encoding="UTF-8" standalone="no"?>
<!-- Generator: Adobe Illustrator 16.0.0, SVG Export Plug-In . SVG Version: 6.00 Build 0)  -->

<svg
   xmlns:dc="http://purl.org/dc/elements/1.1/"
   xmlns:cc="http://creativecommons.org/ns#"
   xmlns:rdf="http://www.w3.org/1999/02/22-rdf-syntax-ns#"
   xmlns:svg="http://www.w3.org/2000/svg"
   xmlns="http://www.w3.org/2000/svg"
   xmlns:sodipodi="http://sodipodi.sourceforge.net/DTD/sodipodi-0.dtd"
   xmlns:inkscape="http://www.inkscape.org/namespaces/inkscape"
   version="1.1"
   id="Capa_1"
   x="0px"
   y="0px"
   width="46.7971"
   height="70.196533"
   viewBox="0 0 7.2696371 10.904593"
   xml:space="preserve"
   sodipodi:docname="draged.svg"
   inkscape:version="0.92.2 (5c3e80d, 2017-08-06)"><metadata
     id="metadata41"><rdf:RDF><cc:Work
         rdf:about=""><dc:format>image/svg+xml</dc:format><dc:type
           rdf:resource="http://purl.org/dc/dcmitype/StillImage" /><dc:title></dc:title></cc:Work></rdf:RDF></metadata><defs
     id="defs39" /><sodipodi:namedview
     pagecolor="#ffffff"
     bordercolor="#666666"
     borderopacity="1"
     objecttolerance="10"
     gridtolerance="10"
     guidetolerance="10"
     inkscape:pageopacity="0"
     inkscape:pageshadow="2"
     inkscape:window-width="1920"
     inkscape:window-height="1017"
     id="namedview37"
     showgrid="false"
     showguides="false"
     fit-margin-top="0"
     fit-margin-left="0"
     fit-margin-right="0"
     fit-margin-bottom="0"
     inkscape:zoom="2.6074563"
     inkscape:cx="164.50879"
     inkscape:cy="14.518039"
     inkscape:window-x="-8"
     inkscape:window-y="-8"
     inkscape:window-maximized="1"
     inkscape:current-layer="Capa_1" /><g
     id="g986"
     transform="matrix(0.13710088,0,0,0.13710088,-1.8174093,0)"><g
       id="g4"><path
         sodipodi:nodetypes="sscccccss"
         style="fill:#ffb400"
         inkscape:connector-curvature="0"
         id="path2"
         d="M 39.768,0 C 25.122,0 13.256,11.866 13.256,26.512 c 0,11.364 7.18,20.972 17.217,24.752 l 2.667,8.099 6.627,20.174 6.629,-20.174 2.666,-8.099 C 59.103,47.484 66.28,37.876 66.28,26.512 66.28,11.866 54.401,0 39.768,0 Z" /></g><g
       id="g6" /><g
       id="g8" /><g
       id="g10" /><g
       id="g12" /><g
       id="g14" /><g
       id="g16" /><g
       id="g18" /><g
       id="g20" /><g
       id="g22" /><g
       id="g24" /><g
       id="g26" /><g
       id="g28" /><g
       id="g30" /><g
       id="g32" /><g
       id="g34" /><g
       transform="matrix(0.84018006,0,0,0.84018006,-36.029064,-7.981898)"
       id="g946"><path
         id="path848-6"
         d="M 106.79082,33.070449 95.87622,22.155844 c -1.941984,-1.941984 -5.095238,-1.941984 -7.037221,0 -0.713125,0.713123 -1.18278,1.60625 -1.369262,2.57395 -1.95299,-1.770824 -4.978904,-1.713737 -6.859481,0.168999 -0.811868,0.811867 -1.283684,1.834493 -1.417504,2.892093 -1.856404,-0.910612 -4.169195,-0.596891 -5.714039,0.947953 -1.707155,1.709418 -1.911228,4.360103 -0.612218,6.293341 -1.009358,0.171159 -1.939823,0.649557 -2.679279,1.386851 -1.939823,1.939823 -1.939823,5.097398 0,7.037222 l 3.499993,3.499991 v 3.93447 c 0,5.444138 4.430355,9.874493 9.874492,9.874493 h 10.813698 c 3.223508,0 6.253841,-1.255191 8.535981,-3.535069 l 3.87955,-3.879541 c 2.70777,-2.707773 4.19995,-6.30867 4.19995,-10.139972 0,-3.831304 -1.49218,-7.432405 -4.20006,-10.140176 z"
         inkscape:connector-curvature="0"
         style="fill:#ffffff;fill-opacity:1;stroke-width:0.10285928"
         sodipodi:nodetypes="cscccccccscsssccsc" /><g
         id="g909"
         transform="matrix(0.15534375,0,0,0.15534375,65.634397,11.944935)"><g
           id="g852"><g
             id="g850"><path
               id="path848"
               d="M 264.93778,135.99204 194.67679,65.731051 c -12.5012,-12.501201 -32.79976,-12.501201 -45.30096,0 -4.59062,4.590614 -7.61395,10.339973 -8.8144,16.569388 -12.57205,-11.399394 -32.05088,-11.031909 -44.156785,1.087903 -5.22627,5.226261 -8.263506,11.809249 -9.12495,18.617378 -11.950299,-5.86192 -26.838512,-3.84239 -36.783191,6.10229 -10.989535,11.0041 -12.30322,28.06745 -3.941057,40.51235 -6.497578,1.10181 -12.487295,4.18142 -17.247418,8.92763 -12.487294,12.4873 -12.487294,32.81367 0,45.30097 l 22.530633,22.53062 v 25.32751 c 0,35.04574 28.519685,63.56543 63.565428,63.56543 h 69.61141 c 20.75081,0 40.25811,-8.08009 54.94901,-22.75643 l 24.97393,-24.97391 c 17.43082,-17.43084 27.0365,-40.61103 27.0365,-65.27441 0,-24.66339 -9.60568,-47.8449 -27.03716,-65.27573 z m -9.97249,120.56242 -24.97393,24.97392 c -12.02115,12.00658 -27.99726,18.61739 -44.96195,18.61739 h -69.62532 c -27.262288,0 -49.439999,-22.17706 -49.439999,-49.44 v -11.20141 l 16.187993,16.20189 c 2.754502,2.75451 7.232553,2.75451 9.987056,0 1.369967,-1.38453 2.062565,-3.19217 2.062565,-5.00048 0,-1.8083 -0.678032,-3.61594 -2.062565,-5.00048 L 39.295084,192.86124 c -3.376251,-3.37626 -5.240836,-7.88212 -5.240836,-12.6568 0,-4.77469 1.864585,-9.28056 5.240836,-12.65681 6.766406,-6.7664 18.561104,-6.7664 25.32751,0 l 17.530153,17.53016 c 2.754501,2.75449 7.232553,2.75449 9.987054,0 1.369968,-1.38453 2.062566,-3.19218 2.062566,-5.00049 0,-1.80831 -0.678031,-3.61594 -2.062566,-5.00048 L 60.48422,143.42124 c -6.978291,-6.97829 -6.978291,-18.34921 0,-25.3275 6.978292,-6.9783 18.349219,-6.9783 25.327511,0 l 31.655579,31.66948 c 2.7545,2.75449 7.23255,2.75449 9.98706,0 1.38453,-1.38453 2.06257,-3.19218 2.06257,-5.00048 0,-1.8083 -0.67804,-3.61594 -2.06257,-5.00047 l -21.06135,-21.06136 c -3.37625,-3.37624 -5.24083,-7.8821 -5.24083,-12.6568 0,-4.77469 1.86458,-9.280557 5.25474,-12.656803 6.97829,-6.978291 18.34922,-6.978291 25.32751,0 l 21.06134,21.061343 c 2.75451,2.7545 7.23257,2.7545 9.98706,0 1.36997,-1.38453 2.06256,-3.19218 2.06256,-5.00048 0,-1.8083 -0.67803,-3.61594 -2.06256,-5.00047 l -3.40406,-3.40406 c -6.9783,-6.978304 -6.9783,-18.349231 0,-25.327518 6.76641,-6.766406 18.56111,-6.766406 25.32751,0 l 70.26098,70.260978 c 14.76107,14.76109 22.89747,34.41009 22.89747,55.28801 0,20.87794 -8.13837,40.5276 -22.89945,55.28935 z"
               inkscape:connector-curvature="0"
               style="stroke-width:0.66213983" /></g></g><g
           id="g854" /><g
           id="g856" /><g
           id="g858" /><g
           id="g860" /><g
           id="g862" /><g
           id="g864" /><g
           id="g866" /><g
           id="g868" /><g
           id="g870" /><g
           id="g872" /><g
           id="g874" /><g
           id="g876" /><g
           id="g878" /><g
           id="g880" /><g
           id="g882" /></g></g></g></svg>