<?xml version="1.0" encoding="iso-8859-1"?>
<!-- Generator: Adobe Illustrator 19.0.0, SVG Export Plug-In . SVG Version: 6.00 Build 0)  -->
<svg version="1.1" id="Capa_1" xmlns="http://www.w3.org/2000/svg" xmlns:xlink="http://www.w3.org/1999/xlink" x="0px" y="0px"
	 viewBox="0 0 504.186 504.186" style="enable-background:new 0 0 504.186 504.186;" xml:space="preserve">
<g transform="translate(0 -1)">
	<g>
		<polygon style="fill:#A5A5A4;" points="161.492,161.682 136.759,186.327 201.844,251.325 226.489,226.68 251.135,202.034 
			186.137,136.949 		"/>
		<polygon style="fill:#A5A5A4;" points="303.203,254.015 278.557,278.747 253.825,303.393 318.997,368.478 343.642,343.832 
			368.287,319.187 		"/>
	</g>
	
		<rect x="188.865" y="135.856" transform="matrix(-0.7071 0.7071 -0.7071 -0.7071 480.7633 164.5259)" style="fill:#41767F;" width="34.885" height="91.951"/>
	<path style="fill:#A5A5A4;" d="M161.492,161.682l-0.087-0.087"/>
	
		<rect x="305.96" y="252.919" transform="matrix(-0.7071 0.7071 -0.7071 -0.7071 763.4759 281.6719)" style="fill:#41767F;" width="34.885" height="92.073"/>
	<path style="fill:#D1D4D1;" d="M92.201,6.107L209.404,123.31c6.778,6.778,6.778,17.767,0,24.545l-61.731,61.731
		c-6.778,6.778-17.767,6.778-24.545,0L5.925,92.383c-6.778-6.778-6.778-17.767,0-24.545L67.656,6.107
		C74.434-0.671,85.423-0.671,92.201,6.107z"/>
	<g>
		<path style="fill:#67B9CC;" d="M166.265,191.1l-18.572,18.484c-3.239,3.29-7.662,5.142-12.279,5.142s-9.04-1.852-12.279-5.142
			L104.651,191.1l30.72-30.807L166.265,191.1z"/>
		<path style="fill:#67B9CC;" d="M61.435,86.27l-30.807,30.807L5.896,92.431c-6.769-6.787-6.769-17.772,0-24.559l18.57-18.571
			L61.435,86.27z"/>
		
			<rect x="61.211" y="121.238" transform="matrix(-0.7061 0.7081 -0.7081 -0.7061 239.7952 177.8349)" style="fill:#67B9CC;" width="43.563" height="34.885"/>
	</g>
	<g>
		
			<rect x="36.601" y="96.58" transform="matrix(-0.7071 0.7071 -0.7071 -0.7071 180.2905 153.3673)" style="fill:#41767F;" width="43.563" height="34.885"/>
		<polygon style="fill:#41767F;" points="135.371,160.293 104.651,191.1 104.564,191.1 79.919,166.455 110.725,135.561 		"/>
	</g>
	<path style="fill:#A5A5A4;" d="M106.21,407.705c-3.509-0.001-6.673-2.115-8.016-5.357c-1.343-3.242-0.601-6.974,1.88-9.456
		l76.89-76.89c3.397-3.336,8.848-3.312,12.215,0.055c3.367,3.367,3.392,8.818,0.055,12.215l-76.89,76.89
		C110.72,406.793,108.512,407.708,106.21,407.705z"/>
	<g>
		<path style="fill:#67B9CC;" d="M104.591,505.163c-42.295,0.03-80.438-25.435-96.628-64.508s-7.234-84.053,22.687-113.945
			c3.389-3.389,8.883-3.389,12.271,0c3.389,3.389,3.389,8.883,0,12.271c-34.018,34.066-33.998,89.253,0.044,123.295
			s89.23,34.059,123.295,0.04c3.389-3.389,8.883-3.389,12.271,0c3.389,3.389,3.389,8.883,0,12.271
			C158.934,494.209,132.324,505.213,104.591,505.163z"/>
		<path style="fill:#67B9CC;" d="M104.591,470.315c-28.178-0.01-53.578-16.988-64.363-43.02
			c-10.785-26.033-4.833-55.999,15.083-75.933c3.389-3.389,8.883-3.389,12.271,0c3.389,3.389,3.389,8.883,0,12.271
			c-20.384,20.449-20.358,53.542,0.057,73.96s53.509,20.447,73.96,0.065c3.389-3.389,8.883-3.389,12.271,0
			c3.389,3.389,3.389,8.883,0,12.271C140.826,463.034,123.081,470.374,104.591,470.315z"/>
	</g>
	<circle style="fill:#CC4B4C;" cx="104.59" cy="400.673" r="26.121"/>
	<g>
		<path style="fill:#A5A5A4;" d="M317.608,196.307c-3.509-0.001-6.673-2.115-8.016-5.357c-1.343-3.242-0.601-6.974,1.88-9.456
			l27.373-27.373c3.389-3.389,8.883-3.389,12.271,0s3.389,8.883,0,12.271l-27.373,27.372
			C322.118,195.394,319.91,196.309,317.608,196.307z"/>
		<path style="fill:#A5A5A4;" d="M337.922,225.303c-3.509-0.001-6.673-2.115-8.016-5.357c-1.343-3.242-0.601-6.974,1.88-9.456
			l44.042-44.042c3.389-3.389,8.883-3.389,12.271,0c3.389,3.389,3.389,8.883,0,12.271l-44.042,44.042
			C342.432,224.39,340.224,225.305,337.922,225.303z"/>
	</g>
	<path style="fill:#D1D4D1;" d="M295.576,147.875l61.731,61.731c6.778,6.778,6.778,17.767,0,24.545L221.573,369.885
		c-6.778,6.778-17.767,6.778-24.545,0l-61.731-61.731c-6.778-6.778-6.778-17.767,0-24.545l135.734-135.734
		C277.809,141.097,288.798,141.097,295.576,147.875z"/>
	<path style="fill:#67B9CC;" d="M246.362,172.606l18.547,18.547c6.778,6.778,6.778,17.767,0,24.545l-49.422,49.422
		c-6.778,6.778-17.767,6.778-24.545,0l-18.547-18.547L246.362,172.606z"/>
	<g>
		<path style="fill:#A5A5A4;" d="M295.667,255.226c-2.302,0.003-4.51-0.912-6.135-2.543l-6.161-6.161
			c-2.192-2.192-3.048-5.387-2.246-8.381c0.802-2.994,3.141-5.333,6.136-6.136c2.994-0.802,6.189,0.054,8.381,2.246l6.161,6.161
			c2.481,2.482,3.223,6.214,1.88,9.456C302.341,253.111,299.177,255.225,295.667,255.226L295.667,255.226z"/>
		<path style="fill:#A5A5A4;" d="M271.015,279.883c-2.302,0.003-4.51-0.912-6.135-2.543l-6.161-6.165
			c-3.389-3.389-3.389-8.883,0-12.271c3.389-3.389,8.883-3.389,12.271,0l6.161,6.165c2.483,2.481,3.227,6.214,1.883,9.457
			C277.691,277.77,274.526,279.884,271.015,279.883L271.015,279.883z"/>
		<path style="fill:#A5A5A4;" d="M246.362,304.54c-2.301,0.002-4.508-0.911-6.135-2.538l-6.17-6.165
			c-3.358-3.394-3.344-8.863,0.031-12.24c3.375-3.377,8.844-3.395,12.24-0.039l6.17,6.165c2.482,2.482,3.225,6.215,1.882,9.458
			S249.873,304.539,246.362,304.54L246.362,304.54z"/>
	</g>
	<path style="fill:#D1D4D1;" d="M381.9,295.795l117.203,117.203c6.778,6.778,6.778,17.767,0,24.545l-61.731,61.731
		c-6.778,6.778-17.767,6.778-24.545,0L295.624,382.071c-6.778-6.778-6.778-17.767,0-24.545l61.731-61.731
		C364.133,289.017,375.122,289.017,381.9,295.795z"/>
	<g>
		<path style="fill:#67B9CC;" d="M455.924,480.759l-18.572,18.484c-3.239,3.29-7.662,5.142-12.279,5.142
			c-4.616,0-9.04-1.852-12.279-5.142l-18.485-18.484l30.72-30.807L455.924,480.759z"/>
		<path style="fill:#67B9CC;" d="M351.094,375.929l-30.807,30.807l-24.731-24.645c-6.769-6.787-6.769-17.772,0-24.559l18.57-18.571
			L351.094,375.929z"/>
		
			<rect x="350.878" y="410.921" transform="matrix(-0.7061 0.7081 -0.7081 -0.7061 939.1246 466.9468)" style="fill:#67B9CC;" width="43.563" height="34.885"/>
	</g>
	<g>
		
			<rect x="326.262" y="386.257" transform="matrix(-0.7071 0.7071 -0.7071 -0.7071 879.6054 443.0584)" style="fill:#41767F;" width="43.563" height="34.885"/>
		<polygon style="fill:#41767F;" points="425.033,449.955 394.313,480.762 394.226,480.762 369.58,456.116 400.387,425.223 		"/>
	</g>
</g>
<g>
</g>
<g>
</g>
<g>
</g>
<g>
</g>
<g>
</g>
<g>
</g>
<g>
</g>
<g>
</g>
<g>
</g>
<g>
</g>
<g>
</g>
<g>
</g>
<g>
</g>
<g>
</g>
<g>
</g>
</svg>
